<svg width="23" height="22" viewBox="0 0 23 22" fill="#666666" xmlns="http://www.w3.org/2000/svg">
    <path fill-rule="evenodd" clip-rule="evenodd" d="M3.76729 4.85103C4.05178 4.49369 4.36055 4.15707 4.69116 3.84251C4.68581 3.9236 4.65975 4.0067 4.60026 4.08935C4.96763 3.87793 5.49428 4.39723 4.7366 4.33842C5.01285 4.58102 4.94312 4.70667 4.9302 5.09966C5.05585 5.48529 5.57292 6.37351 5.99531 5.96917C6.21787 5.74706 6.1018 5.41222 6.3961 5.16671C6.86839 5.10188 7.07023 4.7236 7.54185 4.5935C7.81342 4.57055 8.39466 4.38787 8.1594 3.94744C8.00412 3.69391 8.23002 3.51056 8.29552 3.18709C8.32671 2.91351 8.25297 2.67425 8.45258 2.42139C8.54927 2.17812 9.1256 2.12665 8.91775 1.83637C8.66021 1.6958 8.2826 2.1095 8.11173 1.71228C9.16904 1.32509 10.3103 1.11389 11.5 1.11389C13.7073 1.11389 15.7477 1.84149 17.395 3.06879C17.3484 3.08862 17.3003 3.10978 17.2477 3.1354C16.7496 3.1706 15.7642 4.0791 16.6781 4.26512C16.5903 3.74426 16.8383 3.56559 17.2816 3.35952C17.3128 3.3437 17.3079 3.34192 17.4177 3.25437C17.4315 3.24657 17.4458 3.23966 17.4603 3.2332C17.5086 3.23298 17.5534 3.23008 17.5955 3.22541C18.0132 3.55356 18.4048 3.91357 18.7646 4.30366C18.7297 4.31881 18.6916 4.33129 18.6461 4.33864C17.9593 3.69302 18.1725 3.6527 17.4609 4.42129C17.0414 4.38475 16.7915 4.47877 16.3956 4.74588C15.7056 4.78108 15.3677 4.95997 14.7363 5.40197C14.5162 5.58131 14.0029 5.21127 14.272 4.97802C14.4841 4.90628 14.6742 5.09052 14.9114 4.86351C15.1193 3.92271 13.0982 4.20653 12.6879 4.5358C10.5968 5.62475 11.672 7.0403 12.3862 6.61924C12.5324 6.27683 12.3523 5.80587 12.7382 5.50779C13.4003 4.88579 12.9699 5.61094 12.9389 5.95892C13.1588 6.30356 13.0648 6.50028 12.7322 6.78053C12.036 7.35263 10.8773 6.87856 10.4088 7.83696C10.4306 8.60644 10.0907 8.29834 9.69814 8.59285C9.30561 9.18589 9.9334 9.60138 10.4788 9.29171C11.0725 8.80338 11.2073 8.11855 12.0536 8.76216C12.0955 8.79848 12.0752 8.77464 12.1944 8.85974C12.2227 8.88469 12.247 8.91321 12.265 8.94685C11.9028 9.41357 12.7663 9.12374 12.3597 8.73543C12.0665 8.51488 12.0269 7.95057 12.5419 8.52668C12.7161 8.68308 12.7003 9.08987 12.973 9.04799C13.4266 8.69867 13.2891 9.20282 13.7253 9.34964C14.5093 9.25429 14.6194 9.72391 13.9617 10.0104C13.6583 10.1098 13.3161 9.94713 12.9481 9.90592C12.6048 10.0287 12.1888 10.1311 11.9271 9.80277C11.6147 8.93504 10.604 9.51271 9.90154 9.62566C9.49207 9.79007 9.61082 10.2428 9.286 10.552C8.54013 11.1762 8.7745 12.6519 9.75941 12.9585C11.5548 13.2167 11.3942 12.2458 12.0229 14.2838C11.8576 16.1431 12.762 18.914 14.201 16.1504C14.4091 15.9528 14.367 15.8105 14.5184 15.5287C14.7586 15.2754 14.9714 15.0729 14.8816 14.6567C14.5276 13.4076 15.6816 13.146 15.7965 12.3427C15.0553 12.4964 13.9813 10.8826 14.1515 10.3557C14.7401 10.5691 15.1478 12.1226 15.631 11.986C15.9592 11.7949 17.2301 11.2513 16.7293 10.8857C15.617 11.0073 15.187 9.51472 16.3936 10.476C19.1881 10.8082 18.0707 12.2627 19.0371 12.4427C19.3116 11.8149 20.3918 10.1327 20.5578 11.8027C21.0198 11.3567 20.9673 11.8156 21.0294 12.3471C20.9797 12.4554 21.1025 12.6622 21.223 12.778C21.2016 12.8945 21.1787 13.0106 21.1533 13.126C20.583 12.627 20.6458 13.1275 21.0261 13.637C19.8687 17.8117 16.0378 20.8861 11.5 20.8861C8.67737 20.8861 6.12943 19.6951 4.32624 17.7915C4.36189 17.7712 4.39776 17.7509 4.42672 17.7291C4.74418 17.2309 5.14162 16.9525 5.45396 16.3585C5.77365 15.9368 6.22455 16.0048 6.42728 15.3758C6.32948 14.8499 7.17895 14.4065 6.59459 14.0109C5.69612 13.6219 5.71483 14.1156 5.20489 13.1623C4.78851 13.0576 4.58868 12.7762 4.13398 12.686C3.96801 12.571 4.00967 12.3808 3.71716 12.3879C3.3919 12.2781 3.04481 12.6158 2.76032 12.318C2.61663 12.4002 2.45912 12.5554 2.22498 12.528C2.10045 12.4643 1.8594 12.5198 1.70679 12.3367C1.7059 12.3309 1.70523 12.3249 1.70457 12.3191C1.71504 12.1273 1.69565 12.0041 1.65867 11.925C1.63016 11.6202 1.61389 11.3119 1.61389 11C1.61389 10.7382 1.62726 10.4798 1.64709 10.2234C1.73308 10.2842 1.79657 10.3822 1.82175 10.5375C1.83066 10.5809 1.87811 10.7084 1.99418 10.6395C2.00376 10.6418 2.01245 10.6444 2.02292 10.646C2.02047 10.6351 2.01824 10.6255 2.01601 10.615C2.06324 10.6037 1.93537 10.2321 1.91955 10.1813C1.86163 9.85089 2.42036 9.7542 2.43974 9.39709C2.26798 9.11393 2.36132 9.11638 2.66586 8.92969C2.96929 8.71226 3.1132 8.32685 3.58349 8.42309C3.57347 8.56567 3.97603 8.42242 4.17654 8.26715C4.15292 8.09984 4.11527 8.13036 3.786 8.21568C3.41062 7.90468 3.87623 7.61796 3.09828 8.0388C3.21813 7.32568 4.65551 7.81913 4.48932 7.11359C4.01658 6.9064 3.95108 6.63238 3.73833 6.16499C3.5757 6.18526 3.31393 6.54327 3.19274 6.23895C3.12902 6.13157 3.06174 6.04335 2.99357 5.9705C3.04325 5.88674 3.09449 5.80431 3.14684 5.72233C3.252 5.79117 3.37141 5.83038 3.51711 5.7798C3.50886 5.7631 3.49706 5.63522 3.39057 5.52873C3.47077 5.4942 3.53404 5.46702 3.62293 5.42893C3.57926 5.41912 3.50998 5.33914 3.46052 5.25716C3.49327 5.21171 3.52446 5.16538 3.55787 5.12037C3.56166 5.12283 3.56456 5.12394 3.56834 5.12661C3.87979 5.29882 3.9767 5.05666 3.76729 4.85103ZM21.3085 12.2151C21.2961 12.3181 21.2843 12.421 21.2684 12.523C21.223 12.2784 21.2453 12.2073 21.3085 12.2151ZM3.05131 16.129C2.79199 15.7032 2.56498 15.2563 2.37116 14.7918C2.66568 15.1478 3.10611 15.3588 3.08072 15.914C3.06802 15.9846 3.05955 16.0568 3.05131 16.129ZM2.02207 13.8062C1.90756 13.4202 1.816 13.0245 1.74894 12.6206C1.85053 12.6738 1.96325 12.6968 2.09068 12.6868C2.1016 12.6874 2.09135 12.687 2.15908 12.7191C2.40503 13.0285 2.12856 13.4217 2.02207 13.8062ZM0.5 11C0.5 17.0654 5.43458 22 11.5 22C17.5654 22 22.5 17.0654 22.5 11C22.5 4.93458 17.5654 0 11.5 0C5.43458 0 0.5 4.93458 0.5 11Z" />
</svg>