<svg width="14" height="14" viewBox="0 0 14 14" fill="none" xmlns="http://www.w3.org/2000/svg">
<path fill-rule="evenodd" clip-rule="evenodd" d="M10.8168 13.7928C10.565 13.5166 10.565 13.0688 10.8168 12.7926L11.6371 11.8927C10.0729 11.7978 8.9174 11.2494 8.00077 10.4379C7.01752 9.56747 6.3426 8.41893 5.73606 7.382L5.72202 7.358C5.10114 6.29653 4.5499 5.35411 3.79106 4.65375C3.05738 3.97661 2.10408 3.50731 0.644748 3.50731C0.288663 3.50731 0 3.19063 0 2.8C0 2.40936 0.288666 2.09269 0.644751 2.09269C2.39889 2.09269 3.64837 2.6734 4.62121 3.57126C5.53188 4.41176 6.17567 5.5133 6.76119 6.51514L6.82133 6.61801C7.44316 7.68108 8.01476 8.63253 8.81058 9.33707C9.55258 9.99396 10.5204 10.4595 11.9721 10.491L10.8168 9.22362C10.565 8.9474 10.565 8.49956 10.8168 8.22333C11.0686 7.94711 11.4768 7.94711 11.7286 8.22333L13.8112 10.5079C14.0629 10.7842 14.0629 11.232 13.8112 11.5082L11.7286 13.7928C11.4768 14.0691 11.0686 14.0691 10.8168 13.7928ZM10.8168 5.77667C10.565 5.50045 10.565 5.0526 10.8168 4.77638L11.972 3.50905C10.5204 3.54053 9.55258 4.00608 8.81058 4.66297C8.50789 4.93094 8.23764 5.23463 7.98472 5.5666C7.73665 5.18234 7.48128 4.77156 7.2176 4.37967C7.45664 4.09011 7.71575 3.81442 8.00077 3.5621C8.9174 2.75061 10.0729 2.2022 11.6371 2.10738L10.8168 1.20745C10.565 0.931231 10.565 0.483387 10.8168 0.207166C11.0686 -0.0690553 11.4768 -0.0690553 11.7286 0.207166L13.8112 2.49177C14.0629 2.768 14.0629 3.21584 13.8112 3.49206L11.7286 5.77667C11.4768 6.05289 11.0686 6.05289 10.8168 5.77667ZM0 11.2C0 11.5907 0.288666 11.9073 0.644751 11.9073C2.39889 11.9073 3.64837 11.3266 4.62121 10.4288C4.82778 10.2381 5.02061 10.034 5.20215 9.82074C5.03927 9.5548 4.88613 9.293 4.73943 9.0422L4.73621 9.0367C4.647 8.88418 4.56006 8.73561 4.47456 8.59108C4.26231 8.86556 4.03764 9.11871 3.79106 9.34629C3.05738 10.0234 2.10408 10.4927 0.644748 10.4927C0.288663 10.4927 0 10.8094 0 11.2Z" fill="#3C0576"/>
</svg>
